<svg xmlns="http://www.w3.org/2000/svg" viewBox="-32 -32 64 64" preserveAspectRatio="xMidYMid meet" role="img" aria-labelledby="enemy-chaser-hull-title">
  <title id="enemy-chaser-hull-title">chaser: hull</title>
  <path id="enemy-chaser-hull-shell" d="M0-26 13-7 11 13 0 21 -11 13 -13-7Z" fill="#24405b"/>
  <path id="enemy-chaser-hull-prow-bevel" d="M0-26 13-7 9-5 0-19 -9-5 -13-7Z" fill="#b3e9ee"/>
  <path id="enemy-chaser-hull-lit-plane" d="M0-19 9-5 8 12 0 16Z" fill="#467e9c"/>
  <path id="enemy-chaser-hull-shade-plane" d="M0-19 -9-5 -8 12 0 16Z" fill="#325570"/>
  <path id="enemy-chaser-hull-exhaust-well" d="M-6 8 0 12 6 8 5 15 0 18 -5 15Z" fill="#111e33"/>
  <path id="enemy-chaser-hull-vents" d="M-11-2 -8-5 -8 3 -11 6Z M11-2 8-5 8 3 11 6Z" fill="#78d7e8"/>
</svg>
